<svg xmlns="http://www.w3.org/2000/svg" xmlns:xlink="http://www.w3.org/1999/xlink" width="164" height="30"><defs><linearGradient id="a" x1="0%" x2="100%" y1="100%" y2="0%"><stop offset="0%" stop-color="#CCAA69"/><stop offset="22.476%" stop-color="#CFAC6A"/><stop offset="35.7%" stop-color="#DDC577"/><stop offset="52.313%" stop-color="#ECD572"/><stop offset="68.866%" stop-color="#E5BC62"/><stop offset="83.046%" stop-color="#D1A554"/><stop offset="100%" stop-color="#FDF9CE"/></linearGradient><linearGradient id="c" x1="100%" x2="0%" y1="49.671%" y2="50.329%"><stop offset="0%" stop-color="#D6AB5D"/><stop offset="14.415%" stop-color="#E1C57C"/><stop offset="30%" stop-color="#F5E4B4"/><stop offset="49.726%" stop-color="#EADFA2"/><stop offset="67.442%" stop-color="#E2CB84"/><stop offset="87%" stop-color="#EDDA9A"/><stop offset="100%" stop-color="#FAE7B1"/></linearGradient><path id="b" d="M43.873 12.813h-4.036l-.597 1.316c-.083.183-.125.327-.125.431 0 .201.146.341.435.419v.219h-2.938v-.219a.767.767 0 00.398-.192c.091-.092.195-.27.312-.534l3.267-7.191c.103-.228.156-.411.156-.548 0-.21-.127-.361-.377-.453v-.218h3.15v.218c-.255.079-.384.213-.384.405 0 .132.04.284.124.454l3.384 7.212c.143.306.269.514.377.627a.79.79 0 00.437.221v.22h-3.27v-.22c.286-.049.43-.191.43-.424 0-.096-.044-.237-.13-.424l-.612-1.319zm-.557-1.283l-1.44-3.332-1.465 3.332h2.904zm7.247 2.126h5.46c.134 0 .236-.032.306-.096.071-.065.127-.178.17-.344h.209v2.42h-.209c-.044-.165-.099-.279-.17-.343-.07-.065-.17-.096-.306-.096h-7.815v-.22c.157-.045.264-.104.326-.178.062-.073.092-.18.092-.322V6.558c0-.141-.03-.249-.092-.322-.062-.074-.17-.132-.325-.179v-.219h2.771v.219c-.155.04-.265.099-.325.174-.062.075-.092.184-.092.325v7.1zm9.43 0h5.46c.133 0 .235-.032.305-.096.071-.065.127-.178.17-.344h.209v2.42h-.209c-.043-.165-.099-.279-.17-.343-.07-.065-.17-.096-.305-.096h-7.816v-.22c.157-.045.264-.104.326-.178.062-.073.091-.18.091-.322V6.558c0-.141-.03-.249-.091-.322-.062-.074-.17-.132-.325-.179v-.219h2.772v.219c-.156.04-.266.099-.326.174-.062.075-.092.184-.092.325v7.1zM72.59 8.789v5.689c0 .143.03.249.092.322.061.074.169.132.325.179v.219h-2.61v-.219c.156-.045.264-.105.326-.178.061-.074.091-.18.091-.323V6.553c0-.136-.03-.242-.091-.314-.062-.072-.17-.133-.326-.179v-.219h3.02v.219c-.187.051-.281.156-.281.315 0 .11.061.231.183.363l4.9 5.369V6.554a.486.486 0 00-.091-.316c-.06-.072-.17-.132-.326-.178v-.219h2.61v.219c-.156.045-.265.105-.325.179a.478.478 0 00-.091.314v7.925c0 .143.031.249.091.322.06.074.17.132.326.179v.219h-2.8v-.219c.183-.04.273-.14.273-.294 0-.091-.106-.25-.317-.48L72.59 8.789zm11.78 2.297v2.569h5.713c.13 0 .23-.032.298-.096.071-.063.126-.179.17-.344h.208v2.42h-.208c-.044-.165-.099-.28-.17-.344a.427.427 0 00-.298-.096h-8.07v-.219c.156-.045.266-.105.327-.179a.496.496 0 00.092-.322V6.557a.5.5 0 00-.092-.323c-.061-.074-.17-.132-.327-.178v-.22h7.913c.13 0 .229-.031.3-.097.069-.064.126-.18.167-.342h.209v2.42h-.209c-.041-.163-.099-.277-.168-.343a.428.428 0 00-.3-.097H84.37v2.221h3.604c.13 0 .23-.031.299-.096.069-.064.126-.178.169-.343h.209v2.365h-.209c-.043-.158-.1-.272-.17-.338-.069-.066-.167-.1-.298-.1H84.37zm14.503-2.482l-2.031 5.408c-.117.274-.175.447-.175.52 0 .21.16.358.481.445v.22h-2.86v-.22c.29-.06.436-.214.436-.466 0-.069-.061-.271-.183-.61l-2.546-6.905c-.125-.344-.24-.575-.341-.696a.768.768 0 00-.448-.243v-.219h3.089v.219c-.273.063-.41.198-.41.405 0 .105.035.256.106.453l1.756 4.952 1.902-4.98c.084-.215.124-.356.124-.425 0-.21-.147-.345-.436-.405v-.219h3.228v.219c-.296.082-.442.231-.442.446 0 .073.035.21.109.41l1.813 4.952 1.751-4.87c.093-.244.138-.423.138-.542 0-.201-.156-.335-.47-.397v-.22h3.054v.22c-.217.063-.366.146-.45.247-.082.1-.19.332-.325.692l-2.544 6.907c-.121.329-.183.549-.183.657 0 .224.156.365.464.418v.22h-2.898v-.22c.302-.049.456-.202.456-.459 0-.087-.068-.292-.203-.616l-1.962-5.298zm19.539 3.228h-2.196c-.133 0-.234.031-.302.096-.067.064-.123.178-.165.343h-.21v-2.179h.21c.043.17.098.284.165.345.068.063.167.093.302.093h4.212v.219c-.154.046-.263.105-.324.178-.062.072-.095.18-.095.322v1.92c0 .142.032.25.092.322.058.074.168.132.327.178v.171c-1.688 1.014-3.321 1.523-4.905 1.523-1.434 0-2.606-.358-3.511-1.077-1.142-.904-1.712-2.162-1.712-3.771 0-1.5.508-2.691 1.524-3.579.963-.841 2.242-1.261 3.84-1.261.507 0 .985.049 1.434.147.45.097.962.263 1.533.496.294.125.505.186.631.186.092 0 .197-.052.319-.157l.183.101-1.044 2.243-.19-.102c-.004-.15-.024-.258-.058-.324s-.112-.147-.234-.243c-.266-.208-.653-.387-1.164-.535a5.188 5.188 0 00-1.45-.223c-.927 0-1.698.275-2.309.822-.69.621-1.034 1.44-1.034 2.459 0 .986.337 1.782 1.008 2.39.617.557 1.428.835 2.435.835.489 0 .974-.06 1.452-.178.475-.119.89-.283 1.236-.488v-1.272zm12.141.151l1.236 1.95-.17.125c-.121-.12-.22-.178-.298-.178-.078 0-.297.109-.657.33-.745.454-1.374.758-1.884.917-.51.16-1.116.237-1.818.237-1.402 0-2.551-.349-3.45-1.048a4.345 4.345 0 01-1.25-1.515 4.972 4.972 0 01-.528-2.283c0-1.134.316-2.118.944-2.955.947-1.257 2.376-1.885 4.288-1.885.704 0 1.306.077 1.81.232.504.154 1.132.462 1.887.918.36.216.58.322.657.322.076 0 .177-.06.298-.178l.17.123-1.236 1.955-.176-.123c.009-.074.013-.134.013-.185a.54.54 0 00-.161-.372c-.109-.115-.302-.256-.581-.42a4.703 4.703 0 00-2.44-.684c-1.016 0-1.825.267-2.427.801-.712.626-1.067 1.443-1.067 2.453 0 1.008.356 1.825 1.067 2.45.602.534 1.411.801 2.426.801.86 0 1.673-.228 2.441-.685.279-.165.471-.305.58-.421a.545.545 0 00.162-.374c0-.05-.004-.11-.013-.178l.177-.13zm4.926 1.673h5.46c.135 0 .236-.032.306-.096.069-.063.124-.178.168-.344h.209v2.42h-.209c-.043-.165-.099-.279-.168-.343-.07-.063-.171-.096-.306-.096h-7.816v-.22c.156-.045.265-.104.327-.178.06-.073.091-.18.091-.322V6.558a.498.498 0 00-.091-.322c-.062-.074-.17-.132-.327-.179v-.219h2.773v.219c-.156.04-.266.099-.326.174a.505.505 0 00-.091.325v7.1zm16.035-7.097v5.246c0 .992-.172 1.734-.52 2.228-.626.886-1.916 1.33-3.874 1.33-1.413 0-2.496-.24-3.246-.72a2.164 2.164 0 01-.91-1.139c-.165-.475-.248-1.042-.248-1.699V6.56a.501.501 0 00-.091-.323c-.061-.074-.17-.132-.327-.178v-.22h2.773v.22c-.154.04-.262.098-.323.173a.503.503 0 00-.094.326v4.668c0 .54.029.938.084 1.197.058.258.162.474.32.648.416.466 1.128.699 2.135.699 1.01 0 1.723-.232 2.142-.699.151-.174.256-.39.311-.648.056-.258.086-.657.086-1.197V6.558a.498.498 0 00-.091-.322c-.062-.074-.17-.132-.327-.179v-.219h2.615v.219c-.156.045-.263.105-.325.178a.508.508 0 00-.09.324zm9.747 3.737c.999.398 1.497 1.134 1.497 2.208 0 .855-.29 1.526-.871 2.008a2.732 2.732 0 01-1.026.525c-.389.108-.869.161-1.442.161h-6.072v-.219c.156-.045.265-.105.327-.178a.5.5 0 00.091-.323V6.56a.501.501 0 00-.091-.323c-.062-.074-.17-.132-.327-.178v-.22h6.013c.578 0 1.042.047 1.394.137.351.091.659.247.924.466.525.436.786 1.061.786 1.878.001.917-.4 1.574-1.203 1.976zm-5.556-.733h3.404c.515 0 .875-.08 1.08-.24.229-.184.345-.467.345-.85 0-.393-.108-.673-.326-.84-.218-.166-.585-.25-1.1-.25h-3.403v2.18zm0 4.093h3.291c.612 0 1.053-.09 1.321-.267.31-.205.464-.541.464-1.008 0-.462-.155-.798-.464-1.008-.264-.178-.705-.267-1.321-.267h-3.291v2.55z"/></defs><g fill="none"><path fill="url(#a)" d="M13.53.067C13.977.02 14.423 0 14.87 0c1.023 0 2.044.11 3.054.278 4.884 1.027 8.472 3.944 10.682 8.358.143.287.67 1.313-.052 1.313h-2.158c-.389 0-.49-.43-.659-.71-.08-.157-.157-.288-.237-.445-1.379-2.298-3.32-3.968-5.84-5.046a7.889 7.889 0 00-1.132-.395c-.367-.132-.762-.211-1.132-.288-.394-.08-.788-.132-1.182-.185-.395-.027-.79-.053-1.21-.053-2.788 0-5.59.974-7.736 2.76-1.38 1.126-2.278 2.325-3.132 3.889-1.37 2.714-1.697 5.643-.952 8.506 1.14 4.4 4.12 7.292 8.294 8.681 2.398.685 4.601.7 7.05 0 .395-.132.764-.263 1.132-.395 3.055-1.306 5.696-3.823 6.762-7.016.163-.433.307-.864.42-1.314a1.256 1.256 0 00-.009-.63c-.133-.518-.463-.807-.965-.974-.105-.025-.21-.025-.315-.025H15.319c-.255 0-.522-.145-.607-.394-.025-.08-.051-.159-.051-.263v-1.314c0-.08.026-.159.051-.237.095-.28.332-.393.607-.393h14.024c.078 0 .156 0 .209.025.246.082.448.386.448.63v.711c0 1.402-.167 2.722-.553 4.073-.131.419-.263.815-.394 1.207-.323.806-.65 1.52-1.105 2.26-.293.513-.61.978-.958 1.432a15.038 15.038 0 01-2.255 2.388 15.57 15.57 0 01-3.997 2.437A15.07 15.07 0 0115.004 30c-.5 0-.975-.027-1.474-.08-1.377-.07-3.003-.532-4.262-1.05a15.484 15.484 0 01-2.579-1.367C2.365 24.533-.122 19.852.005 14.62c.055-2.3.612-4.523 1.751-6.697.436-.826 1.03-1.68 1.615-2.408C5.862 2.418 9.561.485 13.531.067zm-.083 5.628c.551-.095 1.14-.153 1.682-.153l.207.002c2.691.08 5.386 1.751 6.981 3.801a.58.58 0 01.08.578c-.107.183-.29.314-.501.314h-1.842a.534.534 0 01-.394-.156c-1.388-1.336-3.287-1.95-5.107-1.842-.41.024-.733.097-1.132.196-1.642.411-2.88 1.256-3.734 2.302a6.494 6.494 0 00-1.292 2.675c-.223.992-.215 2.236.01 3.219.469 2.046 1.85 3.679 3.775 4.527 1.236.544 2.51.74 3.85.541a6.633 6.633 0 003.63-1.764.535.535 0 01.394-.157h1.842c.21 0 .394.105.5.315a.583.583 0 01-.079.578c-1.434 1.79-3.426 3.151-5.656 3.612a7.996 7.996 0 01-2.119.162 9.164 9.164 0 01-3.095-.756 9.802 9.802 0 01-1.931-1.173c-1.517-1.163-2.755-2.79-3.372-4.532a9.019 9.019 0 01.175-6.431c1.168-2.839 4.062-5.321 7.128-5.858z"/><use fill="#FFF" fill-opacity=".9" xlink:href="#b"/><use fill="url(#c)" xlink:href="#b"/><path fill="#EECB60" d="M36.88 19.796h.989v4.744h-.989v-4.744zm1.914 1.261h.988v.494c.228-.293.52-.56 1.021-.56.747 0 1.184.494 1.184 1.293v2.256h-.989v-1.944c0-.468-.22-.708-.597-.708s-.618.24-.618.708v1.944h-.987v-3.483h-.002zm3.66 0h1.001l.56 2.112.657-2.125h.852l.663 2.131.571-2.118h.981l-1.086 3.51h-.891l-.669-2.139-.683 2.139h-.883l-1.072-3.51zm5.537 2.483v-.014c0-.76.578-1.111 1.404-1.111.351 0 .604.058.852.143V22.5c0-.41-.254-.637-.748-.637-.377 0-.644.072-.962.187l-.248-.753a3.06 3.06 0 011.352-.28c.538 0 .93.142 1.176.39.26.26.377.643.377 1.111v2.022h-.956v-.377c-.24.267-.572.442-1.053.442-.656 0-1.194-.377-1.194-1.066zm2.268-.229v-.174c-.17-.079-.39-.13-.63-.13-.423 0-.682.168-.682.48v.014c0 .266.22.421.54.421.46 0 .772-.253.772-.61zm1.509.768l.423-.65c.377.274.774.415 1.098.415.285 0 .416-.104.416-.26v-.013c0-.216-.34-.285-.722-.404-.487-.144-1.04-.37-1.04-1.047v-.013c0-.708.572-1.104 1.276-1.104.44 0 .922.15 1.3.404l-.377.682c-.343-.201-.688-.325-.942-.325-.24 0-.364.103-.364.24v.013c0 .195.331.287.71.416.487.162 1.053.397 1.053 1.033v.014c0 .773-.578 1.123-1.332 1.123a2.423 2.423 0 01-1.499-.524zm3.55-4.284h1.04v.878h-1.04v-.877zm.026 1.262h.989v3.483h-.989v-3.483zm1.707 2.483v-.014c0-.76.578-1.111 1.404-1.111.351 0 .605.058.852.143V22.5c0-.41-.254-.637-.748-.637-.377 0-.644.072-.962.187l-.248-.753a3.06 3.06 0 011.352-.28c.538 0 .93.142 1.176.39.26.26.377.643.377 1.111v2.022h-.956v-.377c-.24.267-.572.442-1.053.442-.655 0-1.194-.377-1.194-1.066zm2.268-.229v-.174c-.17-.079-.39-.13-.63-.13-.423 0-.682.168-.682.48v.014c0 .266.22.421.54.421.46 0 .772-.253.772-.61z"/><path fill="#E9D192" d="M63.975 19.998h.74l2.428 3.141v-3.141h.792v4.542h-.668l-2.5-3.231v3.231h-.792v-4.542zm6.666 4.62a1.835 1.835 0 01-1.301-.519 1.751 1.751 0 01-.515-1.253v-.013a1.772 1.772 0 01.522-1.263 1.828 1.828 0 011.307-.529c.264 0 .508.046.731.139a1.745 1.745 0 011.093 1.64v.013a1.785 1.785 0 01-.521 1.256 1.84 1.84 0 01-1.316.529zm.013-.681c.16 0 .303-.03.43-.088a1.02 1.02 0 00.531-.584c.047-.132.07-.271.07-.417v-.014a1.12 1.12 0 00-.292-.778 1.002 1.002 0 00-.752-.324 1.003 1.003 0 00-.749.321.992.992 0 00-.206.346 1.267 1.267 0 00-.071.422v.013a1.13 1.13 0 00.293.775.997.997 0 00.746.328zm2.572-.287h.862v.89h-.862v-.89zm2.458-2.875l-.817.227-.17-.65 1.22-.39h.558v4.576h-.792v-3.763h.001zm6.114 3.843c-.35 0-.67-.061-.962-.184a2.293 2.293 0 01-.746-.503 2.344 2.344 0 01-.663-1.65v-.014a2.332 2.332 0 01.668-1.651 2.371 2.371 0 011.714-.699c.349 0 .67.061.96.186.289.123.538.29.746.502a2.359 2.359 0 01.662 1.649v.013a2.353 2.353 0 01-.668 1.654 2.428 2.428 0 01-.752.51 2.399 2.399 0 01-.959.187zm.013-.732a1.474 1.474 0 001.098-.471c.134-.144.237-.315.314-.51.075-.194.112-.402.112-.623v-.013a1.74 1.74 0 00-.112-.625 1.537 1.537 0 00-.805-.86 1.472 1.472 0 00-.62-.13c-.224 0-.43.041-.617.125a1.54 1.54 0 00-.483.344 1.593 1.593 0 00-.313.51 1.726 1.726 0 00-.113.623v.013c0 .22.038.429.113.627a1.516 1.516 0 001.427.99zm3.245-2.772h.792v.537c.055-.084.117-.16.183-.232a1.219 1.219 0 01.523-.329c.105-.032.225-.048.36-.048.389 0 .688.118.9.357.212.237.317.558.317.96v2.181h-.79v-1.942c0-.269-.065-.474-.191-.618-.126-.146-.306-.218-.537-.218a.735.735 0 00-.553.222c-.142.15-.212.357-.212.625v1.93h-.792v-3.425zm4.07-1.311h.791v4.737h-.791v-4.737zm1.823.037h.851v.747h-.85v-.747zm.032 1.274h.792v3.426h-.792v-3.426zm1.812 0h.79v.537c.058-.084.119-.16.185-.232a1.195 1.195 0 01.523-.329c.106-.032.225-.048.359-.048.388 0 .688.118.9.357.213.237.318.558.318.96v2.181h-.792v-1.942c0-.269-.063-.474-.189-.618-.127-.146-.306-.218-.537-.218a.737.737 0 00-.553.222c-.141.15-.213.357-.213.625v1.93h-.791v-3.425zm5.595 3.504c-.246 0-.477-.042-.692-.129a1.706 1.706 0 01-.558-.364 1.732 1.732 0 01-.373-.561 1.868 1.868 0 01-.136-.724v-.013c0-.246.04-.477.122-.695a1.682 1.682 0 01.878-.951c.203-.093.427-.139.673-.139.273 0 .513.05.719.15.206.1.376.232.513.402.136.17.238.364.307.588.071.224.104.459.104.705 0 .035 0 .07-.003.107-.001.035-.006.075-.01.114h-2.519c.044.282.156.496.336.646.178.15.396.223.653.223.195 0 .362-.034.505-.103a1.62 1.62 0 00.422-.306l.462.41c-.164.193-.36.349-.588.467a1.799 1.799 0 01-.815.173zm.778-2.031a1.26 1.26 0 00-.085-.352.9.9 0 00-.175-.285.812.812 0 00-.61-.263.788.788 0 00-.6.249 1.127 1.127 0 00-.287.652h1.757v-.001zm5.725 2.031c-.334 0-.641-.06-.922-.181a2.287 2.287 0 01-1.219-1.239 2.392 2.392 0 01-.177-.916v-.013c0-.324.059-.628.174-.91.115-.284.278-.533.486-.748.209-.214.456-.382.741-.505.285-.125.602-.186.948-.186.209 0 .398.018.569.052a2.28 2.28 0 01.865.37c.122.087.236.181.344.285l-.514.59a2.515 2.515 0 00-.577-.407 1.505 1.505 0 00-.694-.156 1.42 1.42 0 00-.6.125 1.503 1.503 0 00-.788.854 1.725 1.725 0 00-.111.623v.013c0 .22.036.429.111.627.073.197.177.369.31.516.135.149.293.264.477.347.185.085.385.127.6.127.278 0 .515-.054.715-.159.199-.105.397-.25.59-.432l.514.52a2.676 2.676 0 01-.777.589c-.149.07-.31.124-.484.162-.176.034-.37.052-.581.052zm4.68-.078v-.421a1.414 1.414 0 01-1.111.493c-.163 0-.319-.024-.467-.069a1.153 1.153 0 01-.386-.201c-.111-.09-.2-.2-.267-.331a.987.987 0 01-.1-.458v-.014c0-.19.034-.355.103-.496a.965.965 0 01.288-.351 1.3 1.3 0 01.442-.207 2.16 2.16 0 01.554-.069c.209 0 .384.014.53.039.145.026.285.06.418.104v-.067c0-.236-.072-.418-.218-.544-.145-.125-.353-.188-.626-.188-.195 0-.368.02-.52.059a3.308 3.308 0 00-.462.156l-.214-.63c.19-.087.386-.156.585-.208.2-.052.44-.079.72-.079.51 0 .89.128 1.135.38.247.254.371.609.371 1.068v2.031h-.776v.003zm.019-1.434a2.015 2.015 0 00-.353-.098 2.393 2.393 0 00-.431-.037c-.246 0-.44.046-.578.142a.448.448 0 00-.209.39v.014c0 .163.063.29.192.377.128.087.284.13.47.13.129 0 .249-.018.36-.053a.919.919 0 00.288-.146.636.636 0 00.259-.521v-.198h.002zm2.87 1.498a2.29 2.29 0 01-.75-.13 2.463 2.463 0 01-.706-.387l.35-.532c.186.137.377.242.569.313.193.072.377.108.555.108.168 0 .298-.033.393-.1a.314.314 0 00.139-.269v-.014a.25.25 0 00-.062-.168.478.478 0 00-.167-.123 2.198 2.198 0 00-.247-.097l-.289-.09a4.776 4.776 0 01-.38-.123 1.46 1.46 0 01-.343-.184.964.964 0 01-.249-.282.825.825 0 01-.097-.415v-.013a.963.963 0 01.354-.763c.109-.092.24-.16.39-.209.15-.047.307-.07.475-.07.218 0 .435.034.657.103.22.07.421.167.603.288l-.312.561a2.672 2.672 0 00-.5-.237 1.415 1.415 0 00-.468-.087c-.151 0-.27.031-.352.096a.296.296 0 00-.127.246v.014c0 .06.022.112.066.157a.592.592 0 00.17.123c.072.036.155.072.246.104l.288.094c.127.037.252.084.377.136.126.052.24.116.342.191.1.077.184.167.25.276.065.108.096.24.096.396v.012c0 .181-.031.34-.096.473a.95.95 0 01-.27.334c-.115.088-.25.156-.406.201a1.798 1.798 0 01-.5.068zm2.082-4.764h.849v.747h-.85v-.747zm.032 1.274h.791v3.426h-.79v-3.426zm1.811 0h.79v.537c.058-.084.119-.16.185-.232a1.195 1.195 0 01.523-.329c.106-.032.226-.048.359-.048.388 0 .688.118.9.357.213.237.318.558.318.96v2.181h-.792v-1.942c0-.269-.063-.474-.189-.618-.127-.146-.306-.218-.537-.218a.737.737 0 00-.553.222c-.141.15-.213.357-.213.625v1.93h-.791v-3.425zm5.653 3.504a1.856 1.856 0 01-1.302-.519 1.751 1.751 0 01-.515-1.253v-.013a1.772 1.772 0 01.523-1.263 1.833 1.833 0 011.308-.529c.264 0 .507.046.729.139.222.095.415.22.578.384a1.748 1.748 0 01.517 1.256v.013c0 .242-.047.471-.141.687a1.77 1.77 0 01-.964.956 1.85 1.85 0 01-.733.142zm.013-.681c.157 0 .301-.03.427-.088a1.018 1.018 0 00.534-.584c.046-.132.07-.271.07-.417v-.014a1.153 1.153 0 00-.294-.778.994.994 0 00-.751-.324 1.006 1.006 0 00-.749.321.963.963 0 00-.206.346 1.267 1.267 0 00-.071.422v.013a1.147 1.147 0 00.294.775c.093.101.202.181.33.24a.983.983 0 00.415.088z"/></g></svg>